<svg width="200" height="59" viewBox="0 0 200 59" fill="none" xmlns="http://www.w3.org/2000/svg">
<g clip-path="url(#clip0_13_254)">
<path d="M15.9145 4.87439H33.4988C34.0312 4.87439 34.4617 5.60304 34.4617 6.50181C34.4617 7.40057 34.0312 8.12922 33.4988 8.12922H15.9145C15.3831 8.12922 14.9516 7.40057 14.9516 6.50181C14.9516 5.60304 15.3831 4.87439 15.9145 4.87439Z" fill="#121212"/>
<path d="M15.9145 0.00193787H33.4988C34.0312 0.00193787 34.4617 0.730589 34.4617 1.62936C34.4617 2.52812 34.0312 3.25677 33.4988 3.25677H15.9145C15.3831 3.25677 14.9516 2.52812 14.9516 1.62936C14.9516 0.730589 15.3831 0.00193787 15.9145 0.00193787Z" fill="#121212"/>
<path d="M15.2173 8.909L15.0854 9.42328C14.121 13.0801 12.6544 16.5813 10.7286 19.824C9.2373 22.3741 8.45269 25.2853 8.45762 28.2502C8.46829 36.9792 15.2561 43.7534 24.248 44.0042C26.4717 44.0979 28.6911 43.7361 30.7737 42.9403C32.8564 42.1446 34.7594 40.9312 36.3691 39.3727C37.8346 37.9249 38.9965 36.1917 39.7848 34.2772C40.5732 32.3626 40.9718 30.3062 40.9567 28.2315C40.9596 25.2339 40.1549 22.2924 38.6294 19.7247C36.7616 16.6306 35.3441 13.2793 34.421 9.77433L34.2019 8.909" fill="#F3E729"/>
<path d="M24.7067 46.6483C25.5939 46.6483 26.3115 47.0849 26.3115 47.6248V58.0245C26.3115 58.5634 25.593 59.001 24.7067 59.001C23.8204 59.001 23.1028 58.5634 23.1028 58.0245V47.6248C23.1018 47.0849 23.8214 46.6483 24.7067 46.6483Z" fill="#121212"/>
<path d="M9.25567 40.5802C9.88305 41.2164 10.0857 42.0404 9.71045 42.422L2.45913 49.7753C2.08289 50.1569 1.27029 49.9504 0.642901 49.3151C0.0155131 48.6799 -0.186182 47.8559 0.189087 47.4743L7.44429 40.12C7.81568 39.7385 8.62925 39.945 9.25567 40.5802Z" fill="#121212"/>
<path d="M41.2389 40.5792C41.8662 39.943 42.6788 39.7375 43.0541 40.119L50.3064 47.4734C50.6826 47.8549 50.48 48.6789 49.8516 49.3142C49.2233 49.9494 48.4126 50.1549 48.0364 49.7744L40.785 42.42C40.4088 42.0385 40.6153 41.2125 41.2389 40.5792Z" fill="#121212"/>
<path d="M77.0553 31.034V35.3213C77.0553 35.8523 76.9195 35.99 76.4347 35.99C75.6269 35.9812 74.8218 35.8956 74.0298 35.7343C74.212 36.1654 74.3234 36.6238 74.3595 37.0913C75.5619 37.17 75.8528 37.1897 76.2795 37.1897C76.7996 37.2546 77.3269 37.1586 77.7922 36.9143C77.9803 36.7359 78.1227 36.5138 78.2072 36.2671C78.2917 36.0204 78.3157 35.7565 78.2771 35.4983V22.5773C78.2646 21.9339 78.2905 21.2903 78.3546 20.65C77.7427 20.7154 77.1274 20.7417 76.5122 20.7287H72.3232C71.6952 20.7389 71.0671 20.7127 70.442 20.65C70.5373 21.7748 70.5696 22.9042 70.539 24.0327C70.539 29.2443 70.3062 31.329 69.5693 33.1187C68.9894 34.5331 68.0283 35.7532 66.796 36.639C67.1923 36.8721 67.5358 37.187 67.8044 37.5633C68.7636 36.7937 69.5614 35.8376 70.1511 34.751C70.7649 33.5919 71.1782 32.3347 71.3729 31.034H77.0553ZM77.0553 26.314V29.9327H71.5086C71.625 28.733 71.6832 28.025 71.7414 26.314H77.0553ZM77.0553 25.2127H71.7608V21.8497H77.0553V25.2127ZM62.4712 31.7617C62.4774 32.4518 62.4385 33.1417 62.3548 33.8267H63.6736V32.2927H67.4166V33.1973H68.6578C68.619 32.627 68.5996 32.2337 68.5996 31.2897V23.01C68.5996 21.948 68.619 21.594 68.6578 21.122C68.1923 21.1613 67.8432 21.181 66.9123 21.181H64.7984C63.499 21.181 63.0142 21.1613 62.3936 21.122C62.4564 21.7492 62.4823 22.3797 62.4712 23.01V31.7617ZM63.6736 22.302H67.4166V25.9797H63.6736V22.302ZM63.6736 27.081H67.4166V31.1913H63.6736V27.081ZM85.7039 22.8723C86.0509 22.8201 86.4006 22.7872 86.7512 22.774C89.699 22.6757 92.0263 22.538 92.6469 22.42C92.7041 22.4065 92.7627 22.3999 92.8214 22.4003L92.8602 22.4397L92.7826 22.5183L92.705 22.597L92.4335 22.8723C91.0954 24.2097 88.0312 26.9433 85.956 28.615C85.1037 29.3541 84.1959 30.0248 83.2409 30.621L84.1136 31.8797C86.3397 29.7864 89.2434 28.5903 92.2784 28.5167C94.8965 28.5167 96.448 29.6377 96.448 31.5257C96.448 33.1973 95.3814 34.397 93.345 34.9673C93.1667 34.287 92.8641 33.6466 92.4529 33.0793C92.0845 32.5717 91.602 32.1606 91.0455 31.8802C90.4889 31.5997 89.8744 31.4579 89.253 31.4667C87.6433 31.4667 86.4409 32.45 86.4409 33.7677C86.4409 35.577 88.0118 36.5997 90.7463 36.5997C95.0527 36.5997 97.8648 34.574 97.8648 31.506C97.8648 28.9887 95.7896 27.376 92.5509 27.376C90.8909 27.369 89.2562 27.7884 87.7994 28.5953L87.7606 28.5363C90.0394 26.8609 92.1739 24.9924 94.1412 22.951C94.4192 22.6176 94.7542 22.3378 95.1302 22.125L94.3157 21.0433C94.0274 21.1913 93.7078 21.2655 93.3848 21.2597C91.6394 21.3973 89.06 21.5153 87.4503 21.5153C86.8403 21.5391 86.2294 21.4996 85.6273 21.3973L85.7039 22.8723ZM92.0651 35.3213C91.599 35.416 91.1246 35.4621 90.6493 35.459C89.9009 35.4765 89.1583 35.3219 88.4772 35.0067C88.2492 34.9016 88.0553 34.7331 87.918 34.5207C87.7807 34.3084 87.7056 34.0609 87.7015 33.807C87.7015 33.0597 88.3027 32.5877 89.2724 32.5877C90.6687 32.5877 91.6384 33.5317 92.0651 35.3213ZM104.071 22.1053C104.111 22.4907 104.13 22.8781 104.129 23.2657C104.226 28.1037 104.497 30.621 105.176 32.4893C105.836 34.3773 106.844 35.4787 107.93 35.4787C109.307 35.4787 110.199 34.161 111.149 30.7193C110.722 30.397 110.338 30.0203 110.005 29.5983C109.808 30.7575 109.469 31.8872 108.997 32.9613C108.706 33.6103 108.376 33.9447 108.027 33.9447C107.29 33.9447 106.495 32.5877 106.068 30.5817C105.717 28.5627 105.548 26.5154 105.564 24.4653C105.546 23.6828 105.591 22.9 105.7 22.125L104.071 22.1053ZM113.884 23.777C116.185 26.5081 117.594 29.8955 117.918 33.4727L119.295 32.9023C119.064 31.0897 118.574 29.3208 117.84 27.6513C117.151 26.0195 116.216 24.5067 115.067 23.1673L113.884 23.777Z" fill="black"/>
<path d="M129.523 22.0168H131.427V27.846H138.665V22.0168H140.569V36.1237H138.665V29.5266H131.427V36.1237H129.523V22.0168ZM150.496 21.6333C151.529 21.5533 152.565 21.7301 153.516 22.1484C154.466 22.5667 155.302 23.2138 155.95 24.0337C156.918 25.4335 157.404 27.1175 157.333 28.8254C157.401 30.7072 156.843 32.5575 155.748 34.0784C155.128 34.8916 154.322 35.54 153.4 35.9682C152.478 36.3963 151.467 36.5914 150.455 36.5367C149.508 36.5844 148.564 36.4159 147.69 36.0437C146.816 35.6715 146.036 35.105 145.408 34.3862C144.276 32.8847 143.697 31.0302 143.769 29.1421C143.72 27.4014 144.21 25.689 145.17 24.2451C145.764 23.3854 146.566 22.6942 147.498 22.2371C148.43 21.78 149.462 21.5721 150.496 21.6333ZM150.689 34.8277C151.395 34.8837 152.103 34.745 152.737 34.4263C153.372 34.1076 153.909 33.6207 154.293 33.0174C155.047 31.7656 155.433 30.3215 155.405 28.8549C155.474 27.4061 155.018 25.9818 154.122 24.8508C153.688 24.346 153.147 23.9472 152.539 23.6845C151.932 23.4217 151.274 23.3017 150.614 23.3335C149.954 23.3112 149.298 23.434 148.69 23.6933C148.082 23.9527 147.536 24.3425 147.091 24.8361C146.1 26.0851 145.613 27.6689 145.728 29.2679C145.682 30.6793 146.093 32.0672 146.897 33.22C147.351 33.7797 147.934 34.2187 148.593 34.4988C149.253 34.7789 149.97 34.8918 150.682 34.8277H150.689ZM162.626 22.0168V30.7361C162.594 31.6238 162.79 32.5048 163.195 33.2927C163.474 33.7975 163.89 34.2105 164.393 34.4829C164.897 34.7553 165.467 34.8756 166.036 34.8297C166.679 34.9029 167.329 34.785 167.908 34.4901C168.486 34.1952 168.967 33.7361 169.293 33.1688C169.635 32.4075 169.794 31.5748 169.757 30.739V22.0198H171.671V29.9425C171.739 31.3129 171.502 32.6812 170.979 33.9466C170.133 35.6511 168.536 36.5033 166.188 36.5033C163.84 36.5033 162.246 35.6511 161.405 33.9466C160.882 32.6812 160.646 31.3129 160.714 29.9425V22.0198L162.626 22.0168ZM176.824 31.5719C176.836 32.2605 177.029 32.9335 177.383 33.5209C177.772 34.019 178.279 34.4089 178.857 34.6542C179.435 34.8994 180.065 34.9919 180.688 34.9231C181.344 34.9314 181.997 34.8277 182.619 34.6163C183.098 34.5097 183.526 34.2401 183.833 33.8525C184.14 33.4648 184.307 32.9824 184.306 32.4854C184.335 32.173 184.285 31.8582 184.161 31.5708C184.037 31.2833 183.842 31.0329 183.596 30.8432C182.896 30.4383 182.134 30.1558 181.342 30.0074L179.457 29.5747C178.54 29.4112 177.656 29.0967 176.839 28.6435C176.408 28.361 176.058 27.9678 175.825 27.504C175.593 27.0401 175.485 26.522 175.513 26.0023C175.496 25.4181 175.603 24.8368 175.826 24.2982C176.05 23.7596 176.386 23.2763 176.811 22.8812C177.836 22.0115 179.151 21.5749 180.485 21.6619C181.803 21.6207 183.102 21.9948 184.202 22.7327C184.723 23.1242 185.137 23.644 185.404 24.243C185.672 24.842 185.784 25.5003 185.731 26.1557H183.965C183.918 25.5321 183.709 24.9322 183.359 24.4172C182.988 24.0172 182.531 23.7096 182.023 23.518C181.516 23.3265 180.971 23.2563 180.433 23.3129C179.573 23.2325 178.715 23.4886 178.035 24.0287C177.806 24.2369 177.622 24.4915 177.497 24.7761C177.371 25.0607 177.306 25.3689 177.305 25.6807C177.289 25.9899 177.36 26.2974 177.512 26.5665C177.663 26.8355 177.887 27.0548 178.158 27.198C178.971 27.5437 179.819 27.8011 180.686 27.966L182.637 28.4174C183.414 28.566 184.154 28.8694 184.815 29.3102C185.253 29.6402 185.603 30.0753 185.834 30.5764C186.066 31.0776 186.171 31.6291 186.14 32.1816C186.193 32.8423 186.064 33.505 185.768 34.0959C185.472 34.6869 185.019 35.1829 184.462 35.5288C183.274 36.2186 181.924 36.567 180.556 36.5367C179.083 36.6249 177.632 36.1447 176.494 35.1925C176.003 34.7357 175.62 34.1736 175.371 33.5472C175.122 32.9208 175.014 32.246 175.055 31.5719H176.824ZM189.716 22.0168H199.858V23.7455H191.553V28.028H199.233V29.6603H191.553V34.4422H200V36.1237H189.716V22.0168Z" fill="black"/>
</g>
<defs>
<clipPath id="clip0_13_254">
<rect width="200" height="59" fill="white"/>
</clipPath>
</defs>
</svg>
